<?xml version="1.0" standalone="no"?>
<!DOCTYPE svg PUBLIC "-//W3C//DTD SVG 20010904//EN"
 "http://www.w3.org/TR/2001/REC-SVG-20010904/DTD/svg10.dtd">
<svg version="1.0" xmlns="http://www.w3.org/2000/svg"
 width="171.000000pt" height="171.000000pt" viewBox="0 0 171.000000 171.000000"
 preserveAspectRatio="xMidYMid meet">
<metadata>
Created by potrace 1.11, written by Peter Selinger 2001-2013
</metadata>
<g transform="translate(0.000000,171.000000) scale(0.100000,-0.100000)"
fill="#000000" stroke="none">
<path d="M747 1080 c-32 -10 -76 -30 -98 -44 -32 -21 -39 -23 -39 -10 0 26
-24 10 -33 -22 -10 -34 -24 -74 -44 -129 -18 -50 -11 -139 17 -216 11 -30 18
-43 15 -29 -35 156 -36 161 -23 188 7 15 36 39 63 54 133 72 397 60 531 -23
29 -17 34 -26 34 -58 0 -20 -7 -64 -16 -96 -8 -33 -17 -71 -18 -85 -2 -13 -8
-26 -15 -28 -15 -5 -14 12 4 55 8 19 15 46 15 58 0 51 -86 114 -158 115 -71 0
-136 -48 -99 -74 11 -9 12 -14 4 -22 -7 -5 -3 -4 7 2 28 15 31 34 7 34 -12 0
-21 5 -21 11 0 13 62 39 97 39 44 0 110 -38 133 -77 21 -35 21 -38 5 -80 -17
-45 -54 -73 -95 -73 -11 0 -29 -9 -39 -19 -42 -42 -209 -39 -260 5 -16 13 -40
24 -53 24 -59 0 -89 57 -67 129 14 46 32 66 50 56 8 -6 7 -10 -2 -17 -10 -7
-9 -8 7 -6 11 2 31 -4 45 -13 37 -24 88 -39 128 -38 41 1 37 2 -41 18 -37 8
-73 24 -103 47 -25 20 -52 34 -59 31 -27 -11 -48 -77 -44 -139 4 -58 4 -59
-20 -53 -15 4 -21 2 -17 -5 3 -5 14 -10 24 -10 10 0 28 -11 41 -25 l23 -25
-39 0 c-21 0 -54 9 -72 20 -30 19 -35 19 -68 5 -43 -18 -40 -32 12 -63 34 -20
47 -22 99 -17 89 10 152 14 138 8 -28 -10 -14 -67 26 -110 46 -49 69 -57 153
-51 57 4 63 7 99 49 33 37 38 51 39 92 0 26 4 47 10 47 5 0 24 12 42 28 18 15
42 32 52 38 11 5 20 19 22 30 1 10 9 46 18 79 24 89 23 161 -2 219 -12 26 -19
52 -17 57 8 12 -22 79 -34 79 -6 0 -11 -7 -11 -15 0 -20 -1 -20 -57 15 -46 29
-159 60 -213 59 -14 0 -51 -8 -83 -19z m128 -30 c3 -5 15 -10 26 -10 10 0 19
-4 19 -10 0 -5 -4 -10 -10 -10 -5 0 -10 -7 -10 -15 0 -22 -69 -20 -86 3 -19
24 -17 32 5 32 11 0 23 5 26 10 3 6 10 10 15 10 5 0 12 -4 15 -10z m-296 -536
c48 -10 26 -24 -38 -24 -42 0 -65 5 -82 19 l-23 18 29 16 c27 14 32 14 57 -4
14 -11 40 -22 57 -25z"/>
<path d="M1015 750 c27 -12 43 -12 25 0 -8 5 -22 9 -30 9 -10 0 -8 -3 5 -9z"/>
<path d="M610 695 c0 -8 7 -15 16 -15 11 0 13 -6 9 -19 -12 -40 54 -70 74 -33
13 24 -12 62 -40 62 -11 0 -29 5 -40 10 -15 8 -19 7 -19 -5z"/>
<path d="M1045 697 c-16 -5 -37 -12 -45 -15 -11 -3 -12 -5 -2 -9 10 -4 9 -8
-5 -18 -15 -11 -15 -15 -4 -29 26 -31 71 -15 74 25 0 13 8 29 16 35 20 16 1
22 -34 11z"/>
<path d="M830 545 c7 -8 18 -15 25 -15 7 0 18 7 25 15 11 13 7 15 -25 15 -32
0 -36 -2 -25 -15z"/>
</g>
</svg>
