<?xml version="1.0" standalone="no"?>
<!DOCTYPE svg PUBLIC "-//W3C//DTD SVG 20010904//EN"
 "http://www.w3.org/TR/2001/REC-SVG-20010904/DTD/svg10.dtd">
<svg version="1.0" xmlns="http://www.w3.org/2000/svg"
 width="123.000000pt" height="123.000000pt" viewBox="0 0 123.000000 123.000000"
 preserveAspectRatio="xMidYMid meet">
<metadata>
Created by potrace 1.11, written by Peter Selinger 2001-2013
</metadata>
<g transform="translate(0.000000,123.000000) scale(0.100000,-0.100000)"
fill="#000000" stroke="none">
<path d="M725 1168 c-34 -18 -45 -40 -45 -85 0 -30 -8 -56 -25 -81 -23 -33
-25 -46 -25 -139 l0 -103 -55 0 -55 0 0 40 c0 38 2 40 30 40 l30 0 0 120 0
120 -200 0 -200 0 0 -120 0 -120 30 0 c28 0 30 -2 30 -40 l0 -40 -60 0 -60 0
0 -280 0 -280 180 0 180 0 0 -70 0 -70 -230 0 c-223 0 -230 -1 -230 -20 0 -20
7 -20 580 -20 l580 0 0 510 0 510 -140 0 -140 0 0 -490 0 -490 -40 0 -40 0 0
45 c0 44 0 45 -34 45 -45 0 -75 27 -83 72 -5 32 -1 41 25 68 34 34 59 37 104
14 l31 -16 -7 29 c-10 41 -38 76 -77 95 -19 10 -28 18 -21 18 9 0 12 67 12
303 0 291 -1 303 -20 315 -11 7 -20 23 -20 37 0 14 8 29 20 35 12 6 20 21 20
35 0 27 -13 31 -45 13z m-328 -183 c23 -14 43 -27 43 -29 0 -5 -87 -56 -94
-56 -3 0 -6 25 -6 55 0 30 3 55 7 55 3 0 26 -11 50 -25z m723 -55 l0 -30 -80
0 -80 0 0 30 0 30 80 0 80 0 0 -30z m-402 -27 c3 -19 -1 -23 -22 -23 -21 0
-26 5 -26 26 0 21 4 25 23 22 14 -2 23 -11 25 -25z m-358 -103 l0 -40 -50 0
-50 0 0 40 0 40 50 0 50 0 0 -40z m140 0 l0 -40 -60 0 -60 0 0 40 0 40 60 0
60 0 0 -40z m215 10 c0 -18 -6 -26 -22 -28 -20 -3 -23 1 -23 28 0 27 3 31 23
28 16 -2 22 -10 22 -28z m405 -20 l0 -30 -80 0 -80 0 0 30 0 30 80 0 80 0 0
-30z m-405 -70 c0 -18 -6 -26 -22 -28 -20 -3 -23 1 -23 28 0 27 3 31 23 28 16
-2 22 -10 22 -28z m-383 -7 c23 -21 23 -45 -2 -68 -45 -40 -105 20 -65 65 22
24 43 25 67 3z m170 0 c22 -20 23 -41 1 -65 -20 -22 -46 -23 -67 -2 -30 29 -9
84 31 84 9 0 25 -7 35 -17z m618 -63 l0 -30 -80 0 -80 0 0 30 0 30 80 0 80 0
0 -30z m-434 -93 l51 -92 -27 -3 c-21 -2 -27 -8 -23 -20 3 -12 -5 -21 -26 -29
-42 -15 -71 -67 -71 -125 l0 -48 -70 0 c-82 0 -83 -14 6 131 l53 88 -29 3 -30
3 53 92 c28 51 54 93 57 93 3 -1 28 -42 56 -93z m-345 2 c8 -16 8 -28 0 -46
-9 -19 -17 -24 -43 -21 -40 4 -56 28 -40 62 15 34 66 37 83 5z m170 0 c17 -33
-3 -69 -39 -69 -33 0 -52 16 -52 45 0 29 19 45 52 45 18 0 31 -7 39 -21z m609
-49 l0 -30 -80 0 -80 0 0 30 0 30 80 0 80 0 0 -30z m-940 -30 c0 -13 -7 -20
-20 -20 -13 0 -20 7 -20 20 0 13 7 20 20 20 13 0 20 -7 20 -20z m150 -58 c30
-24 21 -69 -15 -78 -35 -9 -53 1 -61 32 -6 21 -2 31 16 46 12 10 26 18 30 18
4 0 18 -8 30 -18z m172 1 c22 -20 23 -41 1 -65 -20 -22 -46 -23 -67 -2 -30 29
-9 84 31 84 9 0 25 -7 35 -17z m-322 -33 c0 -23 -4 -30 -20 -30 -16 0 -20 7
-20 30 0 23 4 30 20 30 16 0 20 -7 20 -30z m940 -20 l0 -30 -80 0 -80 0 0 30
0 30 80 0 80 0 0 -30z m-940 -80 c0 -23 -4 -30 -20 -30 -16 0 -20 7 -20 30 0
23 4 30 20 30 16 0 20 -7 20 -30z"/>
</g>
</svg>
